<?xml version="1.0" encoding="iso-8859-1"?>
<!-- Generator: Adobe Illustrator 19.0.0, SVG Export Plug-In . SVG Version: 6.00 Build 0)  -->
<svg version="1.1" id="Capa_1" xmlns="http://www.w3.org/2000/svg" xmlns:xlink="http://www.w3.org/1999/xlink" x="0px" y="0px"
	 viewBox="0 0 512 512" style="enable-background:new 0 0 512 512;" xml:space="preserve">
<g>
	<path style="fill:#FF4D5E;" d="M432.399,15.494H79.601L9.8,112.289l1.205,1.205l-0.003-0.003l-0.002,0.003h0.005l161.696,161.697
		L37.155,410.739l80.826,85.768L502.2,112.289L432.399,15.494z M256,191.894l-78.4-78.4H334.4L256,191.894z"/>
	<polygon style="fill:#FF4D5E;" points="500.994,113.494 500.999,113.494 500.997,113.491 	"/>
	<polygon style="fill:#FF4D5E;" points="256,358.488 394.019,496.506 474.845,410.739 339.298,275.19 	"/>
</g>
<path d="M510.148,106.557L440.401,9.836c-0.006-0.009-0.012-0.017-0.018-0.025l-0.034-0.048c-0.013-0.019-0.028-0.034-0.042-0.052
	c-0.174-0.239-0.362-0.468-0.556-0.689c-0.047-0.053-0.093-0.107-0.141-0.159c-0.215-0.233-0.437-0.459-0.672-0.669
	c-0.023-0.021-0.047-0.038-0.071-0.059c-0.215-0.189-0.439-0.367-0.669-0.535c-0.063-0.046-0.125-0.092-0.189-0.136
	c-0.256-0.178-0.517-0.349-0.789-0.503c-0.016-0.009-0.033-0.017-0.049-0.025c-0.259-0.144-0.525-0.273-0.796-0.394
	c-0.071-0.031-0.141-0.062-0.213-0.092c-0.579-0.241-1.184-0.428-1.807-0.555c-0.075-0.016-0.152-0.029-0.228-0.043
	c-0.288-0.052-0.579-0.093-0.873-0.119c-0.023-0.002-0.044-0.007-0.068-0.009c-0.006,0-0.012,0-0.018,0
	c-0.254-0.021-0.511-0.031-0.768-0.031H79.602c-0.258,0-0.515,0.012-0.768,0.031c-0.006,0-0.012,0-0.018,0
	c-0.023,0.002-0.044,0.007-0.068,0.009c-0.295,0.025-0.585,0.067-0.873,0.119c-0.076,0.014-0.152,0.027-0.228,0.043
	c-0.623,0.126-1.228,0.314-1.808,0.555c-0.072,0.029-0.142,0.061-0.213,0.092c-0.271,0.121-0.538,0.25-0.796,0.394
	c-0.017,0.009-0.033,0.017-0.049,0.025c-0.271,0.154-0.533,0.324-0.789,0.503c-0.064,0.044-0.125,0.09-0.188,0.136
	c-0.231,0.17-0.456,0.347-0.671,0.537c-0.023,0.02-0.046,0.037-0.069,0.058c-0.235,0.211-0.458,0.435-0.673,0.669
	c-0.048,0.052-0.094,0.105-0.141,0.159c-0.195,0.22-0.381,0.449-0.556,0.689c-0.013,0.018-0.028,0.033-0.042,0.052l-0.034,0.048
	C71.612,9.82,71.606,9.828,71.6,9.837l-69.748,96.72c-2.813,3.899-2.38,9.262,1.019,12.662l155.972,155.973L30.226,403.809
	c-3.747,3.748-3.837,9.794-0.203,13.651l80.826,85.768c1.817,1.929,4.337,3.039,6.986,3.078c0.049,0.001,0.097,0.001,0.145,0.001
	c2.597,0,5.09-1.032,6.93-2.87l131.089-131.089l131.09,131.087c1.839,1.839,4.333,2.87,6.93,2.87c0.049,0,0.097,0,0.146-0.001
	c2.649-0.039,5.169-1.15,6.986-3.078l80.826-85.767c3.635-3.857,3.545-9.903-0.202-13.651L353.157,275.19L509.13,119.217
	C512.529,115.818,512.961,110.455,510.148,106.557z M256,178.034l-54.741-54.74h109.48L256,178.034z M330.341,103.694H181.66
	l-39.2-39.2h35.14c5.413,0,9.8-4.388,9.8-9.8s-4.387-9.8-9.8-9.8h-54.74l-19.6-19.6h305.48L330.341,103.694z M22.628,111.256
	l58.186-80.689l89.857,89.857c0.002,0.001,0.004,0.003,0.005,0.005l71.465,71.465l-69.438,69.438L22.628,111.256z M339.298,289.05
	l121.891,121.891l-67.378,71.497L269.86,358.488l19.829-19.829L339.298,289.05z M118.19,482.438l-67.378-71.497L179.63,282.124
	c0.001-0.001,0.002-0.002,0.003-0.003l83.298-83.298h0.001l78.397-78.397c0,0,0.002-0.001,0.003-0.002l89.857-89.857l58.186,80.688
	L118.19,482.438z"/>
<path d="M216.046,50.95c-0.245-0.598-0.539-1.165-0.902-1.694c-0.353-0.54-0.764-1.04-1.215-1.491
	c-2.274-2.274-5.655-3.322-8.84-2.674c-0.627,0.127-1.245,0.313-1.833,0.558c-0.598,0.245-1.166,0.55-1.695,0.902
	c-0.539,0.353-1.039,0.764-1.49,1.215c-0.451,0.451-0.862,0.951-1.215,1.491c-0.353,0.529-0.657,1.097-0.902,1.694
	c-0.245,0.588-0.441,1.205-0.559,1.833c-0.127,0.627-0.196,1.274-0.196,1.911c0,0.636,0.069,1.284,0.196,1.911
	c0.118,0.627,0.314,1.245,0.559,1.832c0.245,0.598,0.549,1.166,0.902,1.695c0.353,0.539,0.764,1.039,1.215,1.49
	c0.451,0.451,0.951,0.863,1.49,1.215c0.529,0.353,1.098,0.657,1.695,0.902c0.588,0.245,1.205,0.441,1.833,0.568
	c0.627,0.127,1.274,0.186,1.911,0.186c2.577,0,5.106-1.049,6.929-2.872c0.451-0.451,0.862-0.951,1.215-1.49
	c0.363-0.529,0.657-1.098,0.902-1.695c0.245-0.588,0.441-1.204,0.568-1.832c0.127-0.628,0.186-1.275,0.186-1.911
	c0-0.637-0.059-1.285-0.186-1.911C216.487,52.156,216.291,51.538,216.046,50.95z"/>
<g>
</g>
<g>
</g>
<g>
</g>
<g>
</g>
<g>
</g>
<g>
</g>
<g>
</g>
<g>
</g>
<g>
</g>
<g>
</g>
<g>
</g>
<g>
</g>
<g>
</g>
<g>
</g>
<g>
</g>
</svg>
